<svg xmlns="http://www.w3.org/2000/svg" width="600" height="600">
        <ellipse cx="150" cy="160" rx="40" ry="10" fill="rgb(163, 160, 160)"/>
        <circle r="60" cx="150" cy="100" fill="orange"/>
        <ellipse cx="100" cy="100" rx="45" ry="15" fill="orange" transform="rotate(25 90 50)"/>
        <polygon fill="white" points="66,83 56,100 40,80 "/>
        <polygon fill="orange" points="140,50 100,67 110, 30 "/>
        <polygon fill="black" points="128,47 110,60 112, 38 "/>
        <polygon fill="orange" points="160,50 200,67 190, 30 "/>
        <polygon fill="black" points="176,48 193,64 187, 37 "/>
        <ellipse cx="150" cy="120" rx="17" ry="8" fill="rgb(108, 51, 51)"/>
        <circle r="24" cx="169" cy="80" fill="white"/>
        <circle r="4" cx="169" cy="80" fill="black"/>
        <circle r="24" cx="140" cy="80" fill="white"/>
        <circle r="4" cx="140" cy="80" fill="black"/>
        <circle r="8" cx="155" cy="98" fill="black"/>

        <ellipse cx="300" cy="160" rx="40" ry="10" fill="rgb(163, 160, 160)"/>
        <circle r="60" cx="300" cy="100" fill="rgb(245, 207, 39)"/>
        <circle r="24" cx="319" cy="80" fill="white"/>
        <circle r="4" cx="319" cy="80" fill="black"/>
        <circle r="24" cx="290" cy="80" fill="white"/>
        <circle r="4" cx="290" cy="80" fill="black"/>
        <ellipse cx="300" cy="120" ry="13" rx="8" fill="rgb(108, 51, 51)"/>
    </svg>